<?xml version="1.0" encoding="utf-8"?>
<!-- Generator: Adobe Illustrator 20.1.0, SVG Export Plug-In . SVG Version: 6.00 Build 0)  -->
<svg version="1.1" id="Original" xmlns="http://www.w3.org/2000/svg" xmlns:xlink="http://www.w3.org/1999/xlink" x="0px" y="0px"
	 viewBox="0 0 505.3 462.7" style="enable-background:new 0 0 505.3 462.7;" xml:space="preserve">
<style type="text/css">
	.st0{fill:#FFFFFF;}
	.st1{fill:#D55654;}
	.st2{fill:#333333;}
	.st3{fill:#D1D1D1;}
</style>
<title>logoLight</title>
<g id="Camada_7">
	<path class="st0" d="M466.7,230L466.7,230c0,116.5-94.5,211-211.1,211S44.5,346.5,44.5,230l0,0L466.7,230L466.7,230z"/>
	<path class="st1" d="M466.7,230c0-116.5-94.5-211-211.1-211S44.5,113.5,44.5,230H466.7L466.7,230z"/>
</g>
<path class="st2" d="M51.3,177c-4.5,17.3-6.7,35.1-6.7,53c0,0.4,0,0.7,0,1.1h133.6c0-0.5,0-1.1,0-1.6c-0.1-19.4,7.1-38.2,20.2-52.5
	H51.3z M460.1,177H311.9c13.1,14.3,20.4,33,20.3,52.5c0,0.5,0,1.1,0,1.6h134.6c0-0.4,0-0.7,0-1.1C466.7,212.1,464.5,194.3,460.1,177
	L460.1,177z"/>
<circle class="st2" cx="255.6" cy="229.5" r="78.1"/>
<ellipse class="st0" cx="255.6" cy="229.5" rx="52.3" ry="52.2"/>
<circle class="st3" cx="255.6" cy="229.5" r="34.4"/>
<path class="st2" d="M313.4,177c5.8,6.3,10.4,13.6,13.8,21.4c-6.6,9-10.1,19.8-10.1,31l0,0c0,28.9,23.5,52.4,52.4,52.4c0,0,0,0,0,0
	h83.4c28.9,0,52.4-23.5,52.4-52.4c0,0,0,0,0,0l0,0c0-28.9-23.5-52.4-52.4-52.4l0,0L313.4,177L313.4,177z"/>
<g id="GO">
	<path class="st0" d="M403.9,205.2l-9.6,9.5c-6.1-6.4-13.2-9.6-21.3-9.6c-6.6-0.2-13,2.4-17.7,7c-4.7,4.4-7.3,10.6-7.1,17.1
		c-0.1,6.6,2.6,13,7.4,17.6c4.9,4.8,11.5,7.4,18.3,7.2c4.2,0.1,8.3-0.9,11.9-3c3.5-2.3,6.2-5.5,7.8-9.3h-20.8v-12.8h36.1l0.1,3
		c0,6.3-1.7,12.4-4.9,17.8c-3,5.3-7.3,9.8-12.6,12.9c-5.6,3.1-11.8,4.6-18.2,4.4c-6.9,0.1-13.8-1.5-19.9-4.8
		c-5.8-3.2-10.6-8-13.8-13.8c-3.4-5.9-5.1-12.6-5.1-19.4c-0.1-9.1,3.2-18,9.4-24.8c7.4-8.3,17.1-12.5,29-12.5c6,0,12,1.1,17.5,3.5
		C395,197.1,399.5,200.5,403.9,205.2z"/>
	<path class="st0" d="M450.9,191.7c9.9-0.1,19.3,3.9,26.2,11c7.2,7.1,11.1,16.8,10.9,26.8c0.2,10-3.7,19.6-10.8,26.5
		c-6.9,7.1-16.3,11-26.2,10.9c-10.8,0-19.7-3.7-26.8-11.2c-14.6-14.8-14.4-38.6,0.4-53.3C431.6,195.6,441,191.7,450.9,191.7z
		 M450.7,205.1c-6.3-0.1-12.4,2.4-16.7,6.9c-4.5,4.6-6.8,10.5-6.8,17.6c0,7.9,2.8,14.2,8.5,18.8c4.3,3.6,9.7,5.5,15.2,5.4
		c6.3,0.1,12.3-2.5,16.5-7c9.2-9.7,9.1-24.9,0-34.7C463.1,207.5,457,205,450.7,205.1z"/>
</g>
</svg>
