<svg id="Original" xmlns="http://www.w3.org/2000/svg" viewBox="0 0 505.27 462.73"><defs><style>.cls-1{fill:#fff;}.cls-2{fill:#d55654;}.cls-3{fill:#333;}.cls-4{fill:#d1d1d1;}</style></defs><title>logoLight</title><g id="Camada_7" data-name="Camada 7"><path class="cls-1" d="M466.5,264.08v0c0,127.78-103.64,231.37-231.48,231.37S3.54,391.88,3.54,264.1v0h463Z" transform="translate(-3.54 -32.73)"/><path class="cls-2" d="M466.5,264.08C466.49,136.31,362.86,32.73,235,32.73S3.55,136.31,3.54,264.08h463Z" transform="translate(-3.54 -32.73)"/></g><path class="cls-3" d="M11,206A231.66,231.66,0,0,0,3.6,264.1c0,0.41,0,.81,0,1.22H150.12c0-.6,0-1.19,0-1.8A84.18,84.18,0,0,1,172.26,206H11Zm448.24,0H296.78A84.18,84.18,0,0,1,319,263.52c0,0.6,0,1.2,0,1.8H466.55c0-.41,0-0.81,0-1.22A231.66,231.66,0,0,0,459.2,206Z" transform="translate(-3.54 -32.73)"/><circle class="cls-3" cx="231.48" cy="230.81" r="85.67"/><ellipse class="cls-1" cx="231.48" cy="230.81" rx="57.3" ry="57.28"/><circle class="cls-4" cx="231.48" cy="230.81" r="37.68"/><path class="cls-3" d="M298.42,206a84.38,84.38,0,0,1,15.17,23.49,57.18,57.18,0,0,0-11.11,33.94h0a57.45,57.45,0,0,0,57.45,57.45h91.43a57.45,57.45,0,0,0,57.45-57.45h0a57.45,57.45,0,0,0-57.45-57.45H298.42Z" transform="translate(-3.54 -32.73)"/><g id="GO"><path class="cls-1" d="M397.66,236.93l-10.54,10.42q-10-10.58-23.32-10.58a26.66,26.66,0,0,0-19.44,7.69,25.22,25.22,0,0,0-7.84,18.7,25.87,25.87,0,0,0,8.13,19.28,27.66,27.66,0,0,0,20.06,7.91,24.61,24.61,0,0,0,13.08-3.26,22.93,22.93,0,0,0,8.59-10.2H363.62v-14h39.55l0.11,3.31a38.45,38.45,0,0,1-5.34,19.55,37.34,37.34,0,0,1-13.84,14.1,39.46,39.46,0,0,1-19.93,4.86,44.3,44.3,0,0,1-21.83-5.31,38.88,38.88,0,0,1-15.18-15.14A42.21,42.21,0,0,1,321.56,263a39.41,39.41,0,0,1,10.31-27.14q12.24-13.73,31.85-13.73a48.56,48.56,0,0,1,19.19,3.79Q390.45,229.13,397.66,236.93Z" transform="translate(-3.54 -32.73)"/><path class="cls-1" d="M449.2,222.13a39.05,39.05,0,0,1,28.69,12.07,40.17,40.17,0,0,1,12,29.43,39.71,39.71,0,0,1-11.85,29.11,39,39,0,0,1-28.74,11.91q-17.7,0-29.41-12.23A41.29,41.29,0,0,1,449.2,222.13ZM449,236.77a24.68,24.68,0,0,0-18.35,7.59q-7.44,7.59-7.44,19.28,0,13,9.36,20.62a25.68,25.68,0,0,0,16.69,5.93,24.38,24.38,0,0,0,18.14-7.69,27.71,27.71,0,0,0-.05-38A24.61,24.61,0,0,0,449,236.77Z" transform="translate(-3.54 -32.73)"/></g></svg>